<?xml version="1.0" standalone="no"?>
<svg viewBox="0 0 200 200" xmlns="http://www.w3.org/2000/svg">
  <path fill="#000000" d="M45.9,-72.7C59.7,-71.5,71.2,-59.6,79.1,-45.7C87,-31.9,91.1,-15.9,87.7,-2C84.2,11.9,73.1,23.9,64.7,36.8C56.3,49.7,50.5,63.7,40.2,73.4C29.9,83.2,14.9,88.8,0.2,88.4C-14.5,88,-29,81.7,-42,73.5C-55,65.2,-66.6,55.2,-72.6,42.6C-78.7,30.1,-79.4,15,-74.9,2.6C-70.4,-9.9,-60.8,-19.7,-54.4,-31.7C-48,-43.7,-44.8,-57.8,-36.2,-62C-27.7,-66.3,-13.8,-60.6,1.1,-62.5C16,-64.4,32.1,-73.9,45.9,-72.7Z" transform="translate(100 100)" />
</svg>
