<svg width="191" height="386" viewBox="0 0 191 386" fill="none" xmlns="http://www.w3.org/2000/svg">
<path fill-rule="evenodd" clip-rule="evenodd" d="M0.97376 28.098C0.97376 12.5799 13.9156 0 29.8802 0H161.104C177.069 0 190.011 12.5799 190.011 28.098V120.149C190.557 120.149 191 120.58 191 121.111V165.942C191 166.473 190.557 166.904 190.011 166.904V357.902C190.011 373.42 177.069 386 161.104 386H29.8802C13.9156 386 0.97376 373.42 0.97376 357.902V166.698C0.435058 166.689 0.00111798 166.262 0.00111798 165.737V138.688C0.00111798 138.163 0.435058 137.735 0.97376 137.727V128.911C0.434541 128.903 0 128.476 0 127.949V100.593C0 100.066 0.434541 99.6391 0.97376 99.6309V86.2533C0.434541 86.2452 0 85.8177 0 85.2917V72.6967C0 72.1706 0.434541 71.7432 0.97376 71.735V28.098ZM29.8802 5.28577C16.9189 5.28577 6.41161 15.4992 6.41161 28.098V357.902C6.41161 370.501 16.9189 380.714 29.8802 380.714H161.104C174.065 380.714 184.573 370.501 184.573 357.902V28.098C184.573 15.4992 174.065 5.28577 161.104 5.28577H29.8802Z" fill="black"/>
</svg>
