<?xml version="1.0" standalone="no"?><svg xmlns="http://www.w3.org/2000/svg" viewBox="0 0 1440 320"><path fill="#beb8ac" fill-opacity="1" d="M0,288L0,192L46.5,192L46.5,32L92.9,32L92.9,96L139.4,96L139.4,288L185.8,288L185.8,128L232.3,128L232.3,224L278.7,224L278.7,320L325.2,320L325.2,64L371.6,64L371.6,32L418.1,32L418.1,256L464.5,256L464.5,160L511,160L511,192L557.4,192L557.4,32L603.9,32L603.9,64L650.3,64L650.3,0L696.8,0L696.8,224L743.2,224L743.2,32L789.7,32L789.7,128L836.1,128L836.1,96L882.6,96L882.6,32L929,32L929,224L975.5,224L975.5,160L1021.9,160L1021.9,256L1068.4,256L1068.4,32L1114.8,32L1114.8,128L1161.3,128L1161.3,0L1207.7,0L1207.7,32L1254.2,32L1254.2,96L1300.6,96L1300.6,224L1347.1,224L1347.1,320L1393.5,320L1393.5,0L1440,0L1440,0L1393.5,0L1393.5,0L1347.1,0L1347.1,0L1300.6,0L1300.6,0L1254.2,0L1254.2,0L1207.7,0L1207.7,0L1161.3,0L1161.3,0L1114.8,0L1114.8,0L1068.4,0L1068.4,0L1021.9,0L1021.9,0L975.5,0L975.5,0L929,0L929,0L882.6,0L882.6,0L836.1,0L836.1,0L789.7,0L789.7,0L743.2,0L743.2,0L696.8,0L696.8,0L650.3,0L650.3,0L603.9,0L603.9,0L557.4,0L557.4,0L511,0L511,0L464.5,0L464.5,0L418.1,0L418.1,0L371.6,0L371.6,0L325.2,0L325.2,0L278.7,0L278.7,0L232.3,0L232.3,0L185.8,0L185.8,0L139.4,0L139.4,0L92.9,0L92.9,0L46.5,0L46.5,0L0,0L0,0Z"></path></svg>