<?xml version="1.0" standalone="no"?><svg xmlns="http://www.w3.org/2000/svg" viewBox="0 0 1440 320"><path fill="#000000" fill-opacity="1" d="M0,320L0,192L102.9,192L102.9,64L205.7,64L205.7,128L308.6,128L308.6,256L411.4,256L411.4,96L514.3,96L514.3,192L617.1,192L617.1,96L720,96L720,256L822.9,256L822.9,96L925.7,96L925.7,256L1028.6,256L1028.6,160L1131.4,160L1131.4,320L1234.3,320L1234.3,32L1337.1,32L1337.1,192L1440,192L1440,320L1337.1,320L1337.1,320L1234.3,320L1234.3,320L1131.4,320L1131.4,320L1028.6,320L1028.6,320L925.7,320L925.7,320L822.9,320L822.9,320L720,320L720,320L617.1,320L617.1,320L514.3,320L514.3,320L411.4,320L411.4,320L308.6,320L308.6,320L205.7,320L205.7,320L102.9,320L102.9,320L0,320L0,320Z"></path></svg>